<mxfile host="app.diagrams.net" agent="Mozilla/5.0 (Windows NT 10.0; Win64; x64) AppleWebKit/537.36 (KHTML, like Gecko) Chrome/135.0.0.0 Safari/537.36" version="26.2.13">
  <diagram name="Page-1" id="irtT9vzCQmn2z5btynsJ">
    <mxGraphModel dx="995" dy="570" grid="1" gridSize="10" guides="1" tooltips="1" connect="1" arrows="1" fold="1" page="1" pageScale="1" pageWidth="1500" pageHeight="850" math="0" shadow="0">
      <root>
        <mxCell id="0" />
        <mxCell id="1" parent="0" />
        <mxCell id="0Xd9f00YHpyXeHfZJmxf-25" value="&lt;span style=&quot;white-space: pre;&quot;&gt;&#x9;&lt;/span&gt;Engine Running" style="rounded=0;whiteSpace=wrap;html=1;arcSize=40;fontColor=#000000;fillColor=#ffffc0;strokeColor=#ff0000;align=left;verticalAlign=top;" parent="1" vertex="1">
          <mxGeometry x="320" width="640" height="480" as="geometry" />
        </mxCell>
        <mxCell id="j9qDgMZxyjssZD3H1FH8-8" value="Cruise Active" style="rounded=0;whiteSpace=wrap;html=1;arcSize=40;fontColor=#000000;fillColor=#ffffc0;strokeColor=#ff0000;align=left;verticalAlign=top;" vertex="1" parent="1">
          <mxGeometry x="600" y="40" width="280" height="400" as="geometry" />
        </mxCell>
        <mxCell id="0Xd9f00YHpyXeHfZJmxf-6" value="Off" style="swimlane;fontStyle=1;align=center;verticalAlign=middle;childLayout=stackLayout;horizontal=1;startSize=30;horizontalStack=0;resizeParent=0;resizeLast=1;container=0;fontColor=#000000;collapsible=0;rounded=1;arcSize=30;strokeColor=#ff0000;fillColor=#ffffc0;swimlaneFillColor=#ffffc0;dropTarget=0;" parent="1" vertex="1">
          <mxGeometry x="80" y="210" width="160" height="60" as="geometry" />
        </mxCell>
        <mxCell id="0Xd9f00YHpyXeHfZJmxf-7" value="Exit: Set TargetSpeed = 0" style="text;html=1;strokeColor=none;fillColor=none;align=center;verticalAlign=middle;spacingLeft=4;spacingRight=4;whiteSpace=wrap;overflow=hidden;rotatable=0;fontColor=#000000;" parent="0Xd9f00YHpyXeHfZJmxf-6" vertex="1">
          <mxGeometry y="30" width="160" height="30" as="geometry" />
        </mxCell>
        <mxCell id="0Xd9f00YHpyXeHfZJmxf-9" value="Idle" style="swimlane;fontStyle=1;align=center;verticalAlign=middle;childLayout=stackLayout;horizontal=1;startSize=30;horizontalStack=0;resizeParent=0;resizeLast=1;container=0;fontColor=#000000;collapsible=0;rounded=1;arcSize=30;strokeColor=#ff0000;fillColor=#ffffc0;swimlaneFillColor=#ffffc0;dropTarget=0;" parent="1" vertex="1">
          <mxGeometry x="360" y="210" width="160" height="60" as="geometry" />
        </mxCell>
        <mxCell id="0Xd9f00YHpyXeHfZJmxf-13" value="Maintain" style="swimlane;fontStyle=1;align=center;verticalAlign=middle;childLayout=stackLayout;horizontal=1;startSize=30;horizontalStack=0;resizeParent=0;resizeLast=1;container=0;fontColor=#000000;collapsible=0;rounded=1;arcSize=30;strokeColor=#ff0000;fillColor=#ffffc0;swimlaneFillColor=#ffffc0;dropTarget=0;" parent="1" vertex="1">
          <mxGeometry x="640" y="210" width="160" height="60" as="geometry" />
        </mxCell>
        <mxCell id="0Xd9f00YHpyXeHfZJmxf-14" value="Do: Maintain Speed" style="text;html=1;strokeColor=none;fillColor=none;align=center;verticalAlign=middle;spacingLeft=4;spacingRight=4;whiteSpace=wrap;overflow=hidden;rotatable=0;fontColor=#000000;" parent="0Xd9f00YHpyXeHfZJmxf-13" vertex="1">
          <mxGeometry y="30" width="160" height="30" as="geometry" />
        </mxCell>
        <mxCell id="0Xd9f00YHpyXeHfZJmxf-18" value="" style="ellipse;html=1;shape=startState;fillColor=#000000;strokeColor=#ff0000;" parent="1" vertex="1">
          <mxGeometry x="145" y="120" width="30" height="30" as="geometry" />
        </mxCell>
        <mxCell id="0Xd9f00YHpyXeHfZJmxf-19" value="" style="edgeStyle=orthogonalEdgeStyle;html=1;verticalAlign=bottom;endArrow=open;endSize=8;strokeColor=#ff0000;rounded=0;" parent="1" source="0Xd9f00YHpyXeHfZJmxf-18" edge="1">
          <mxGeometry relative="1" as="geometry">
            <mxPoint x="160" y="210" as="targetPoint" />
          </mxGeometry>
        </mxCell>
        <mxCell id="0Xd9f00YHpyXeHfZJmxf-21" value="" style="edgeStyle=orthogonalEdgeStyle;html=1;verticalAlign=bottom;endArrow=open;endSize=8;strokeColor=#ff0000;rounded=0;entryX=0;entryY=0;entryDx=0;entryDy=0;exitX=1;exitY=0;exitDx=0;exitDy=0;" parent="1" source="0Xd9f00YHpyXeHfZJmxf-7" edge="1">
          <mxGeometry relative="1" as="geometry">
            <mxPoint x="360" y="240" as="targetPoint" />
            <Array as="points">
              <mxPoint x="260" y="240" />
              <mxPoint x="260" y="240" />
            </Array>
          </mxGeometry>
        </mxCell>
        <mxCell id="0Xd9f00YHpyXeHfZJmxf-24" value="Engine On" style="edgeLabel;html=1;align=center;verticalAlign=middle;resizable=0;points=[];" parent="0Xd9f00YHpyXeHfZJmxf-21" vertex="1" connectable="0">
          <mxGeometry x="-0.11" relative="1" as="geometry">
            <mxPoint x="-19" as="offset" />
          </mxGeometry>
        </mxCell>
        <mxCell id="0Xd9f00YHpyXeHfZJmxf-27" value="Composite State" style="swimlane;fontStyle=1;align=center;verticalAlign=middle;childLayout=stackLayout;horizontal=1;startSize=30;horizontalStack=0;resizeParent=0;resizeLast=1;container=0;fontColor=#000000;collapsible=0;rounded=1;arcSize=30;strokeColor=#ff0000;fillColor=#ffffc0;swimlaneFillColor=#ffffc0;dropTarget=0;" parent="1" vertex="1">
          <mxGeometry x="640" y="80" width="160" height="60" as="geometry" />
        </mxCell>
        <mxCell id="0Xd9f00YHpyXeHfZJmxf-28" value="&lt;div&gt;Do: Accelerate&lt;/div&gt;" style="text;html=1;strokeColor=none;fillColor=none;align=center;verticalAlign=middle;spacingLeft=4;spacingRight=4;whiteSpace=wrap;overflow=hidden;rotatable=0;fontColor=#000000;" parent="0Xd9f00YHpyXeHfZJmxf-27" vertex="1">
          <mxGeometry y="30" width="160" height="30" as="geometry" />
        </mxCell>
        <mxCell id="0Xd9f00YHpyXeHfZJmxf-29" value="" style="edgeStyle=orthogonalEdgeStyle;html=1;verticalAlign=bottom;endArrow=open;endSize=8;strokeColor=#ff0000;rounded=0;exitX=1;exitY=0;exitDx=0;exitDy=0;entryX=1;entryY=0.5;entryDx=0;entryDy=0;" parent="1" source="0Xd9f00YHpyXeHfZJmxf-28" target="0Xd9f00YHpyXeHfZJmxf-13" edge="1">
          <mxGeometry relative="1" as="geometry">
            <mxPoint x="640" y="250" as="targetPoint" />
            <Array as="points">
              <mxPoint x="840" y="110" />
              <mxPoint x="840" y="240" />
            </Array>
          </mxGeometry>
        </mxCell>
        <mxCell id="j9qDgMZxyjssZD3H1FH8-18" value="TargetSpeed ==&lt;div&gt;Current Speed&lt;/div&gt;" style="edgeLabel;html=1;align=center;verticalAlign=middle;resizable=0;points=[];" vertex="1" connectable="0" parent="0Xd9f00YHpyXeHfZJmxf-29">
          <mxGeometry x="-0.0876" y="1" relative="1" as="geometry">
            <mxPoint x="-6" y="-9" as="offset" />
          </mxGeometry>
        </mxCell>
        <mxCell id="0Xd9f00YHpyXeHfZJmxf-30" value="Composite State" style="swimlane;fontStyle=1;align=center;verticalAlign=middle;childLayout=stackLayout;horizontal=1;startSize=30;horizontalStack=0;resizeParent=0;resizeLast=1;container=0;fontColor=#000000;collapsible=0;rounded=1;arcSize=30;strokeColor=#ff0000;fillColor=#ffffc0;swimlaneFillColor=#ffffc0;dropTarget=0;" parent="1" vertex="1">
          <mxGeometry x="640" y="340" width="160" height="60" as="geometry" />
        </mxCell>
        <mxCell id="0Xd9f00YHpyXeHfZJmxf-31" value="Enter: Set TargetSpeed = CurrentSpeed&lt;div&gt;Do: Decelerate&lt;/div&gt;" style="text;html=1;strokeColor=none;fillColor=none;align=center;verticalAlign=middle;spacingLeft=4;spacingRight=4;whiteSpace=wrap;overflow=hidden;rotatable=0;fontColor=#000000;" parent="0Xd9f00YHpyXeHfZJmxf-30" vertex="1">
          <mxGeometry y="30" width="160" height="30" as="geometry" />
        </mxCell>
        <mxCell id="0Xd9f00YHpyXeHfZJmxf-32" value="" style="edgeStyle=orthogonalEdgeStyle;html=1;verticalAlign=bottom;endArrow=open;endSize=8;strokeColor=#ff0000;rounded=0;exitX=1;exitY=0;exitDx=0;exitDy=0;" parent="1" source="0Xd9f00YHpyXeHfZJmxf-31" edge="1">
          <mxGeometry relative="1" as="geometry">
            <mxPoint x="800" y="240" as="targetPoint" />
            <Array as="points">
              <mxPoint x="840" y="370" />
              <mxPoint x="840" y="240" />
            </Array>
          </mxGeometry>
        </mxCell>
        <mxCell id="j9qDgMZxyjssZD3H1FH8-20" value="TargetSpeed ==&lt;div&gt;Current Speed&lt;/div&gt;" style="edgeLabel;html=1;align=center;verticalAlign=middle;resizable=0;points=[];" vertex="1" connectable="0" parent="0Xd9f00YHpyXeHfZJmxf-32">
          <mxGeometry x="0.1162" y="-1" relative="1" as="geometry">
            <mxPoint x="-5" y="30" as="offset" />
          </mxGeometry>
        </mxCell>
        <mxCell id="j9qDgMZxyjssZD3H1FH8-2" value="" style="edgeStyle=orthogonalEdgeStyle;html=1;verticalAlign=bottom;endArrow=open;endSize=8;strokeColor=#ff0000;rounded=0;exitX=1;exitY=0;exitDx=0;exitDy=0;entryX=0;entryY=0;entryDx=0;entryDy=0;" edge="1" parent="1" target="0Xd9f00YHpyXeHfZJmxf-14">
          <mxGeometry relative="1" as="geometry">
            <mxPoint x="600" y="240" as="targetPoint" />
            <Array as="points">
              <mxPoint x="520" y="241" />
              <mxPoint x="581" y="241" />
              <mxPoint x="581" y="240" />
            </Array>
            <mxPoint x="520" y="240" as="sourcePoint" />
          </mxGeometry>
        </mxCell>
        <mxCell id="j9qDgMZxyjssZD3H1FH8-21" value="Text" style="edgeLabel;html=1;align=center;verticalAlign=middle;resizable=0;points=[];" vertex="1" connectable="0" parent="j9qDgMZxyjssZD3H1FH8-2">
          <mxGeometry x="-0.5148" y="-6" relative="1" as="geometry">
            <mxPoint as="offset" />
          </mxGeometry>
        </mxCell>
        <mxCell id="j9qDgMZxyjssZD3H1FH8-24" value="Resume Pressed" style="edgeLabel;html=1;align=center;verticalAlign=middle;resizable=0;points=[];" vertex="1" connectable="0" parent="j9qDgMZxyjssZD3H1FH8-2">
          <mxGeometry x="-0.4492" y="-5" relative="1" as="geometry">
            <mxPoint x="10" as="offset" />
          </mxGeometry>
        </mxCell>
        <mxCell id="j9qDgMZxyjssZD3H1FH8-4" value="" style="edgeStyle=orthogonalEdgeStyle;html=1;verticalAlign=bottom;endArrow=open;endSize=8;strokeColor=#ff0000;rounded=0;entryX=0;entryY=0;entryDx=0;entryDy=0;exitX=0.75;exitY=0;exitDx=0;exitDy=0;" edge="1" parent="1">
          <mxGeometry relative="1" as="geometry">
            <mxPoint x="637" y="110" as="targetPoint" />
            <Array as="points">
              <mxPoint x="477" y="110" />
            </Array>
            <mxPoint x="477" y="210" as="sourcePoint" />
          </mxGeometry>
        </mxCell>
        <mxCell id="j9qDgMZxyjssZD3H1FH8-35" value="Accel Pressed /&lt;div&gt;&lt;span style=&quot;font-size: 12px; text-wrap-mode: wrap; background-color: rgb(236, 236, 236);&quot;&gt;Set TargetSpeed =&lt;/span&gt;&lt;/div&gt;&lt;div&gt;&lt;span style=&quot;background-color: light-dark(rgb(236, 236, 236), rgb(34, 34, 34)); font-size: 12px; text-wrap-mode: wrap; color: light-dark(rgb(0, 0, 0), rgb(255, 255, 255));&quot;&gt;CurrentSpeed + 1&lt;/span&gt;&lt;/div&gt;" style="edgeLabel;html=1;align=center;verticalAlign=middle;resizable=1;points=[];resizeWidth=0;" vertex="1" connectable="0" parent="j9qDgMZxyjssZD3H1FH8-4">
          <mxGeometry x="-0.13" y="-2" relative="1" as="geometry">
            <mxPoint x="50" y="4" as="offset" />
          </mxGeometry>
        </mxCell>
        <mxCell id="j9qDgMZxyjssZD3H1FH8-6" value="" style="edgeStyle=orthogonalEdgeStyle;html=1;verticalAlign=bottom;endArrow=open;endSize=8;strokeColor=#ff0000;rounded=0;entryX=0;entryY=0;entryDx=0;entryDy=0;exitX=0.75;exitY=1;exitDx=0;exitDy=0;" edge="1" parent="1" source="0Xd9f00YHpyXeHfZJmxf-9" target="0Xd9f00YHpyXeHfZJmxf-31">
          <mxGeometry relative="1" as="geometry">
            <mxPoint x="610" y="120" as="targetPoint" />
            <Array as="points">
              <mxPoint x="480" y="370" />
            </Array>
            <mxPoint x="500" y="270" as="sourcePoint" />
          </mxGeometry>
        </mxCell>
        <mxCell id="j9qDgMZxyjssZD3H1FH8-7" value="Decel Pressed /&amp;nbsp;&lt;div&gt;Set TargetSpeed =&amp;nbsp;&lt;/div&gt;&lt;div&gt;CurrentSpeed - 1&lt;/div&gt;" style="edgeLabel;html=1;align=center;verticalAlign=middle;resizable=0;points=[];" vertex="1" connectable="0" parent="j9qDgMZxyjssZD3H1FH8-6">
          <mxGeometry x="-0.135" y="-3" relative="1" as="geometry">
            <mxPoint x="54" y="-1" as="offset" />
          </mxGeometry>
        </mxCell>
        <mxCell id="j9qDgMZxyjssZD3H1FH8-14" value="" style="edgeStyle=orthogonalEdgeStyle;html=1;verticalAlign=bottom;endArrow=open;endSize=8;strokeColor=#ff0000;rounded=0;entryX=0.25;entryY=0;entryDx=0;entryDy=0;exitX=-0.009;exitY=0.06;exitDx=0;exitDy=0;exitPerimeter=0;" edge="1" parent="1" source="j9qDgMZxyjssZD3H1FH8-8" target="0Xd9f00YHpyXeHfZJmxf-9">
          <mxGeometry relative="1" as="geometry">
            <mxPoint x="650" y="120" as="targetPoint" />
            <Array as="points">
              <mxPoint x="400" y="64" />
            </Array>
            <mxPoint x="510" y="220" as="sourcePoint" />
          </mxGeometry>
        </mxCell>
        <mxCell id="j9qDgMZxyjssZD3H1FH8-15" value="Gas Pressed" style="edgeLabel;html=1;align=center;verticalAlign=middle;resizable=0;points=[];" vertex="1" connectable="0" parent="j9qDgMZxyjssZD3H1FH8-14">
          <mxGeometry x="-0.135" y="-3" relative="1" as="geometry">
            <mxPoint x="74" as="offset" />
          </mxGeometry>
        </mxCell>
        <mxCell id="j9qDgMZxyjssZD3H1FH8-16" value="" style="edgeStyle=orthogonalEdgeStyle;html=1;verticalAlign=bottom;endArrow=open;endSize=8;strokeColor=#ff0000;rounded=0;entryX=0.25;entryY=1;entryDx=0;entryDy=0;exitX=-0.001;exitY=0.928;exitDx=0;exitDy=0;exitPerimeter=0;" edge="1" parent="1" source="j9qDgMZxyjssZD3H1FH8-8" target="0Xd9f00YHpyXeHfZJmxf-9">
          <mxGeometry relative="1" as="geometry">
            <mxPoint x="410" y="220" as="targetPoint" />
            <Array as="points">
              <mxPoint x="600" y="410" />
              <mxPoint x="400" y="410" />
            </Array>
            <mxPoint x="612" y="74" as="sourcePoint" />
          </mxGeometry>
        </mxCell>
        <mxCell id="j9qDgMZxyjssZD3H1FH8-17" value="Brake Pressed" style="edgeLabel;html=1;align=center;verticalAlign=middle;resizable=0;points=[];" vertex="1" connectable="0" parent="j9qDgMZxyjssZD3H1FH8-16">
          <mxGeometry x="-0.135" y="-3" relative="1" as="geometry">
            <mxPoint x="74" as="offset" />
          </mxGeometry>
        </mxCell>
        <mxCell id="j9qDgMZxyjssZD3H1FH8-25" value="" style="edgeStyle=orthogonalEdgeStyle;html=1;verticalAlign=bottom;endArrow=open;endSize=8;strokeColor=#ff0000;rounded=0;" edge="1" parent="1" target="0Xd9f00YHpyXeHfZJmxf-30">
          <mxGeometry relative="1" as="geometry">
            <mxPoint x="650" y="120" as="targetPoint" />
            <Array as="points">
              <mxPoint x="720" y="290" />
              <mxPoint x="720" y="290" />
            </Array>
            <mxPoint x="720" y="270" as="sourcePoint" />
          </mxGeometry>
        </mxCell>
        <mxCell id="j9qDgMZxyjssZD3H1FH8-27" value="CurrentSpeed &amp;gt; Target Speed" style="edgeLabel;html=1;align=center;verticalAlign=middle;resizable=0;points=[];" vertex="1" connectable="0" parent="j9qDgMZxyjssZD3H1FH8-25">
          <mxGeometry x="-0.4343" y="-2" relative="1" as="geometry">
            <mxPoint as="offset" />
          </mxGeometry>
        </mxCell>
        <mxCell id="j9qDgMZxyjssZD3H1FH8-28" value="" style="edgeStyle=orthogonalEdgeStyle;html=1;verticalAlign=bottom;endArrow=open;endSize=8;strokeColor=#ff0000;rounded=0;exitX=0.5;exitY=0;exitDx=0;exitDy=0;entryX=0.5;entryY=1;entryDx=0;entryDy=0;" edge="1" parent="1" source="0Xd9f00YHpyXeHfZJmxf-13" target="0Xd9f00YHpyXeHfZJmxf-28">
          <mxGeometry relative="1" as="geometry">
            <mxPoint x="730" y="350" as="targetPoint" />
            <Array as="points">
              <mxPoint x="720" y="180" />
              <mxPoint x="720" y="180" />
            </Array>
            <mxPoint x="730" y="280" as="sourcePoint" />
          </mxGeometry>
        </mxCell>
        <mxCell id="j9qDgMZxyjssZD3H1FH8-29" value="CurrentSpeed &amp;lt; Target Speed" style="edgeLabel;html=1;align=center;verticalAlign=middle;resizable=0;points=[];" vertex="1" connectable="0" parent="j9qDgMZxyjssZD3H1FH8-28">
          <mxGeometry x="-0.4343" y="-2" relative="1" as="geometry">
            <mxPoint y="-4" as="offset" />
          </mxGeometry>
        </mxCell>
        <mxCell id="j9qDgMZxyjssZD3H1FH8-30" value="" style="edgeStyle=orthogonalEdgeStyle;html=1;verticalAlign=bottom;endArrow=open;endSize=8;strokeColor=#ff0000;rounded=0;exitX=1;exitY=0.5;exitDx=0;exitDy=0;" edge="1" parent="1" source="j9qDgMZxyjssZD3H1FH8-8">
          <mxGeometry relative="1" as="geometry">
            <mxPoint x="880" y="350" as="targetPoint" />
            <Array as="points">
              <mxPoint x="920" y="240" />
              <mxPoint x="920" y="350" />
            </Array>
            <mxPoint x="730" y="280" as="sourcePoint" />
          </mxGeometry>
        </mxCell>
        <mxCell id="j9qDgMZxyjssZD3H1FH8-31" value="Accel Pressed /&lt;div&gt;Increment TargetSpeed&lt;/div&gt;" style="edgeLabel;html=1;align=center;verticalAlign=middle;resizable=0;points=[];" vertex="1" connectable="0" parent="j9qDgMZxyjssZD3H1FH8-30">
          <mxGeometry x="-0.4343" y="-2" relative="1" as="geometry">
            <mxPoint y="-44" as="offset" />
          </mxGeometry>
        </mxCell>
        <mxCell id="j9qDgMZxyjssZD3H1FH8-36" value="" style="edgeStyle=orthogonalEdgeStyle;html=1;verticalAlign=bottom;endArrow=open;endSize=8;strokeColor=#ff0000;rounded=0;exitX=1;exitY=0.5;exitDx=0;exitDy=0;entryX=1;entryY=0.3;entryDx=0;entryDy=0;entryPerimeter=0;" edge="1" parent="1" source="j9qDgMZxyjssZD3H1FH8-8" target="j9qDgMZxyjssZD3H1FH8-8">
          <mxGeometry relative="1" as="geometry">
            <mxPoint x="890" y="360" as="targetPoint" />
            <Array as="points">
              <mxPoint x="920" y="240" />
              <mxPoint x="920" y="160" />
            </Array>
            <mxPoint x="890" y="250" as="sourcePoint" />
          </mxGeometry>
        </mxCell>
        <mxCell id="j9qDgMZxyjssZD3H1FH8-37" value="Decel Pressed /&lt;div&gt;Decrement TargetSpeed&lt;/div&gt;" style="edgeLabel;html=1;align=center;verticalAlign=middle;resizable=0;points=[];" vertex="1" connectable="0" parent="j9qDgMZxyjssZD3H1FH8-36">
          <mxGeometry x="-0.4343" y="-2" relative="1" as="geometry">
            <mxPoint y="39" as="offset" />
          </mxGeometry>
        </mxCell>
      </root>
    </mxGraphModel>
  </diagram>
</mxfile>
